# xmcd
#
# Track frame offsets: 
#        150
#        22987
#        41225
#        63195
#        82700
#        101250
#        121225
#        140375
#        162737
#        180375
#        197862
#
# Disc length: 2870 seconds
#
# Revision: 5
# Processed by: cddbd v1.5.2PL0 Copyright (c) Steve Scherf et al.
# Submitted via: ExactAudioCopyFreeDBPlugin 1.0
#
DISCID=870b340b
DTITLE=张学友 - 走过1999
DYEAR=1999
DGENRE=Pop
TTITLE0=心如刀割
TTITLE1=坏x5
TTITLE2=她來听我的演唱会
TTITLE3=二分之一的幸福
TTITLE4=留給自己一个晚上
TTITLE5=认床
TTITLE6=好呆
TTITLE7=走过1999
TTITLE8=你好毒
TTITLE9=放弃你
TTITLE10=女人香
EXTD=
EXTT0=
EXTT1=
EXTT2=
EXTT3=
EXTT4=
EXTT5=
EXTT6=
EXTT7=
EXTT8=
EXTT9=
EXTT10=
PLAYORDER=
